<svg xmlns="http://www.w3.org/2000/svg" version="1.1" xmlns:xlink="http://www.w3.org/1999/xlink" xmlns:svgjs="http://svgjs.dev/svgjs" width="1000" height="128" viewBox="0 0 1000 128"><g transform="matrix(1,0,0,1,-0.6060605729405779,0.10703769252751272)"><svg viewBox="0 0 396 51" data-background-color="#1f0f53" preserveAspectRatio="xMidYMid meet" height="128" width="1000" xmlns="http://www.w3.org/2000/svg" xmlns:xlink="http://www.w3.org/1999/xlink"><defs></defs><g id="tight-bounds" transform="matrix(1,0,0,1,0.24000001311560482,-0.04264783061643129)"><svg viewBox="0 0 395.52 51.085295661232855" height="51.085295661232855" width="395.52"><g><svg viewBox="0 0 465.98821463500576 60.18695823037851" height="51.085295661232855" width="395.52"><g transform="matrix(1,0,0,1,0,8.318168612157958)"><svg viewBox="0 0 395.52000000000004 43.55062100606259" height="43.55062100606259" width="395.52000000000004"><g><svg viewBox="0 0 395.52000000000004 43.55062100606259" height="43.55062100606259" width="395.52000000000004"><g><svg viewBox="0 0 395.52000000000004 43.55062100606259" height="43.55062100606259" width="395.52000000000004"><g transform="matrix(1,0,0,1,0,0)"><svg width="395.52000000000004" viewBox="1.350000023841858 -32.79999923706055 305.1300048828125 33.599998474121094" height="43.55062100606259" data-palette-color="#ffdb99"><path d="M28.1-10.6L28.55-10Q27.65-5.25 27.15-0.3L27.15-0.3 26.55 0.35Q17.55 0 10.8 0L10.8 0Q6.25 0 1.35 0.5L1.35 0.5 1.75-3.4Q3.75-3.7 4.48-4.63 5.2-5.55 5.2-7.75L5.2-7.75 5.25-25.8Q5.25-27.4 4.95-27.95 4.65-28.5 3.75-28.5L3.75-28.5Q3-28.5 2.3-28.4L2.3-28.4 1.85-28.95 2.3-32.35 3.4-32.35Q11.35-32.2 12.5-32.2L12.5-32.2Q23.4-32.2 27.8-32.8L27.8-32.8 28.3-32.15Q27.9-30.2 27.58-27.5 27.25-24.8 27.15-22.7L27.15-22.7 21.65-22.35 21.75-24.25Q21.75-25.6 21.33-26.2 20.9-26.8 19.73-27.03 18.55-27.25 16-27.25L16-27.25Q14.55-27.25 14.15-27 13.75-26.75 13.75-25.75L13.75-25.75 13.4-18.85 17.85-18.8Q19.05-18.8 23.5-19.15L23.5-19.15 24-18.6 23.3-13.7Q18.35-13.85 17-13.85L17-13.85Q15.95-13.85 14.75-13.73 13.55-13.6 13.2-13.55L13.2-13.55 13.1-7.7Q13.1-6.3 13.3-5.7 13.5-5.1 14.08-4.9 14.65-4.7 16-4.7L16-4.7Q18.8-4.7 20.13-5.1 21.45-5.5 22.03-6.63 22.6-7.75 22.95-10.25L22.95-10.25 28.1-10.6ZM31.85-9.3L31.25-10.05 31.7-14.55 39.7-15.45Q41.55-15.65 42.45-15.78 43.35-15.9 43.55-15.95L43.55-15.95 44.1-15.2 43.55-10.6 31.85-9.3ZM46.15 0.45L46.55-3.45Q48.5-3.8 49.2-4.67 49.9-5.55 49.9-7.65L49.9-7.65 49.95-25.8Q49.95-27.35 49.62-27.93 49.3-28.5 48.45-28.5L48.45-28.5Q47.9-28.5 47.4-28.45 46.9-28.4 46.75-28.4L46.75-28.4 46.35-28.85 46.8-32.25 53.45-32.2Q55.6-32.2 58.12-32.3 60.65-32.4 61.65-32.45L61.65-32.45Q68.7-32.45 71.52-29.55 74.35-26.65 74.35-22.5L74.35-22.5Q74.35-19.5 72.65-16.82 70.95-14.15 68.15-12.55 65.35-10.95 62.15-10.95L62.15-10.95 57.9-10.95 57.85-7.8Q57.85-6.1 58.02-5.25 58.2-4.4 58.72-4.08 59.25-3.75 60.25-3.75L60.25-3.75Q60.9-3.75 61.47-3.8 62.05-3.85 62.25-3.85L62.25-3.85 62.45-3.5 61.95 0.2Q61.1 0.15 58.95 0.08 56.8 0 54.9 0L54.9 0Q53.25 0 50.22 0.18 47.2 0.35 46.15 0.45L46.15 0.45ZM62-15.55Q65.9-16.6 65.9-21.9L65.9-21.9Q65.9-24.75 64.35-26.05 62.8-27.35 59.45-27.35L59.45-27.35Q58.8-27.35 58.65-27.2 58.5-27.05 58.45-26.4L58.45-26.4Q58.15-21.95 58-16.1L58-16.1 62-15.55ZM89.84 0.6Q82.94 0.6 79.12-3.6 75.29-7.8 75.29-15.35L75.29-15.35Q75.29-20.75 77.24-24.68 79.19-28.6 82.89-30.7 86.59-32.8 91.64-32.8L91.64-32.8Q98.74-32.8 102.54-28.7 106.34-24.6 106.34-17L106.34-17Q106.34-11.6 104.34-7.63 102.34-3.65 98.62-1.53 94.89 0.6 89.84 0.6L89.84 0.6ZM90.99-4.55Q93.94-4.55 95.47-6.98 96.99-9.4 96.99-14.2L96.99-14.2Q96.99-20.8 95.37-23.95 93.74-27.1 90.39-27.1L90.39-27.1Q84.54-27.1 84.54-17.55L84.54-17.55Q84.54-10.95 86.17-7.75 87.79-4.55 90.99-4.55L90.99-4.55ZM133.19 0.8Q131.34 0.8 130.02-0.33 128.69-1.45 127.64-3.8L127.64-3.8 123.84-12.1 120.64-12.1 120.59-7.45Q120.59-5.7 120.82-4.98 121.04-4.25 121.74-4 122.44-3.75 124.14-3.7L124.14-3.7 124.39-3.35 123.89 0.2 116.54 0Q114.49 0 112.02 0.15 109.54 0.3 108.79 0.35L108.79 0.35 109.24-3.5Q111.24-3.8 111.94-4.67 112.64-5.55 112.64-7.65L112.64-7.65 112.69-26.15Q112.69-27.5 112.37-28 112.04-28.5 111.19-28.5L111.19-28.5Q110.64-28.5 110.14-28.45 109.64-28.4 109.49-28.4L109.49-28.4 109.09-28.85 109.59-32.3Q110.34-32.3 112.32-32.25 114.29-32.2 116.19-32.2L116.19-32.2Q118.44-32.2 120.99-32.3 123.54-32.4 124.54-32.45L124.54-32.45Q130.74-32.45 133.97-30.2 137.19-27.95 137.19-23.55L137.19-23.55Q137.19-20.6 135.54-18.18 133.89-15.75 130.79-14.05L130.79-14.05 134.59-7.8Q135.94-5.55 137.22-4.5 138.49-3.45 139.84-3.45L139.84-3.45 140.29-2.8 139.89 0.25 133.19 0.8ZM124.99-16.8Q126.59-17.55 127.67-18.8 128.74-20.05 128.74-22.55L128.74-22.55Q128.74-25.05 127.09-26.25 125.44-27.45 122.04-27.45L122.04-27.45Q121.54-27.45 121.39-27.25 121.24-27.05 121.19-26.35L121.19-26.35Q120.89-22.05 120.79-17.3L120.79-17.3 124.99-16.8ZM145.39 0.35L145.79-3.5Q147.99-3.7 148.99-4.1 149.99-4.5 150.36-5.43 150.74-6.35 150.74-8.3L150.74-8.3 150.74-27.4Q148.54-27.35 147.59-26.9 146.64-26.45 146.21-25.18 145.79-23.9 145.49-20.75L145.49-20.75 140.49-20.4Q140.89-26.25 140.99-32.15L140.99-32.15 141.59-32.75 146.99-32.2 162.59-32.2 168.14-32.75 168.69-32.15Q168.89-24.4 169.09-20.75L169.09-20.75 164.09-20.4Q163.74-23.85 163.36-25.18 162.99-26.5 162.11-26.93 161.24-27.35 159.09-27.4L159.09-27.4Q158.69-17.4 158.69-7.25L158.69-7.25Q158.69-5.4 159.31-4.63 159.94-3.85 161.39-3.85L161.39-3.85Q162.44-3.85 163.99-4L163.99-4 164.19-3.7 163.74 0.25Q156.39 0 154.44 0L154.44 0Q150.99 0 145.39 0.35L145.39 0.35ZM170.64 0.55L171.04-3.35Q173.04-3.75 173.76-4.65 174.49-5.55 174.49-7.75L174.49-7.75 174.54-25.8Q174.54-27.4 174.24-27.95 173.94-28.5 173.04-28.5L173.04-28.5Q172.54-28.5 172.14-28.45 171.74-28.4 171.59-28.4L171.59-28.4 171.14-28.95 171.59-32.35Q172.59-32.3 175.54-32.25 178.49-32.2 181.79-32.2L181.79-32.2Q191.74-32.2 195.84-32.8L195.84-32.8 196.34-32.15Q196.19-31.3 195.86-28.4 195.54-25.5 195.39-22.65L195.39-22.65 189.84-22.3Q189.84-22.5 189.89-23.1 189.94-23.7 189.94-24.25L189.94-24.25Q189.94-25.55 189.59-26.18 189.24-26.8 188.26-27.03 187.29-27.25 185.29-27.25L185.29-27.25Q183.84-27.25 183.44-27 183.04-26.75 183.04-25.75L183.04-25.75 182.69-18 187.14-17.95Q188.04-17.95 189.91-18.1 191.79-18.25 192.39-18.3L192.39-18.3 192.84-17.75 192.14-12.85Q191.54-12.9 189.84-12.95 188.14-13 186.29-13L186.29-13Q185.04-13 182.49-12.7L182.49-12.7 182.39-7.8Q182.39-5.95 182.81-5.3 183.24-4.65 184.54-4.65L184.54-4.65Q185.39-4.65 186.36-4.8 187.34-4.95 187.64-5L187.64-5 188.24-4.3 187.64 0.15Q186.74 0.15 184.36 0.08 181.99 0 179.69 0L179.69 0Q176.99 0 174.21 0.23 171.44 0.45 170.64 0.55L170.64 0.55ZM211.53 0.6Q204.63 0.6 200.81-3.6 196.98-7.8 196.98-15.35L196.98-15.35Q196.98-20.75 198.93-24.68 200.88-28.6 204.58-30.7 208.28-32.8 213.33-32.8L213.33-32.8Q220.43-32.8 224.23-28.7 228.03-24.6 228.03-17L228.03-17Q228.03-11.6 226.03-7.63 224.03-3.65 220.31-1.53 216.58 0.6 211.53 0.6L211.53 0.6ZM212.68-4.55Q215.63-4.55 217.16-6.98 218.68-9.4 218.68-14.2L218.68-14.2Q218.68-20.8 217.06-23.95 215.43-27.1 212.08-27.1L212.08-27.1Q206.23-27.1 206.23-17.55L206.23-17.55Q206.23-10.95 207.86-7.75 209.48-4.55 212.68-4.55L212.68-4.55ZM230.63 0.5L231.03-3.4Q232.93-3.7 233.63-4.63 234.33-5.55 234.33-7.75L234.33-7.75 234.33-25.9Q234.33-27.45 233.98-27.98 233.63-28.5 232.53-28.5L232.53-28.5Q232.08-28.5 231.68-28.45 231.28-28.4 231.13-28.4L231.13-28.4 230.78-28.95 231.18-32.25 238.48-32.2Q239.93-32.2 243.11-32.33 246.28-32.45 247.33-32.5L247.33-32.5 246.88-28.4Q245.13-28.2 244.31-27.9 243.48-27.6 243.18-27 242.88-26.4 242.78-25.2L242.78-25.2Q242.28-18 242.28-7.35L242.28-7.35Q242.28-5.75 242.78-5.23 243.28-4.7 244.83-4.7L244.83-4.7Q247.03-4.7 248.13-5.3 249.23-5.9 249.76-7.53 250.28-9.15 250.58-12.5L250.58-12.5 255.73-13.05 256.18-12.45Q256.03-11.45 255.63-7.83 255.23-4.2 254.93-0.25L254.93-0.25 254.33 0.4Q252.98 0.35 248.51 0.18 244.03 0 239.98 0L239.98 0Q237.03 0 234.23 0.2 231.43 0.4 230.63 0.5L230.63 0.5ZM257.28 0.35L257.68-3.3Q259.78-3.75 260.45-4.55 261.13-5.35 261.13-7.45L261.13-7.45 261.18-25.9Q261.18-27.45 260.8-27.98 260.43-28.5 259.38-28.5L259.38-28.5Q258.63-28.5 257.83-28.4L257.83-28.4 257.48-28.95 257.88-32.25 265.28-32.2Q266.68-32.2 269.73-32.35L269.73-32.35 273.03-32.5 272.73-28.7Q270.88-28.45 270.3-27.95 269.73-27.45 269.63-26L269.63-26Q269.08-15.35 269.08-7.15L269.08-7.15Q269.08-5.05 269.43-4.38 269.78-3.7 270.88-3.7L270.88-3.7Q272.03-3.7 272.78-3.85L272.78-3.85 273.08-3.45 272.63 0.2Q267.73 0 264.83 0L264.83 0Q262.43 0 257.28 0.35L257.28 0.35ZM289.98 0.6Q283.08 0.6 279.25-3.6 275.43-7.8 275.43-15.35L275.43-15.35Q275.43-20.75 277.38-24.68 279.33-28.6 283.03-30.7 286.73-32.8 291.78-32.8L291.78-32.8Q298.88-32.8 302.68-28.7 306.48-24.6 306.48-17L306.48-17Q306.48-11.6 304.48-7.63 302.48-3.65 298.75-1.53 295.03 0.6 289.98 0.6L289.98 0.6ZM291.13-4.55Q294.08-4.55 295.6-6.98 297.13-9.4 297.13-14.2L297.13-14.2Q297.13-20.8 295.5-23.95 293.88-27.1 290.53-27.1L290.53-27.1Q284.68-27.1 284.68-17.55L284.68-17.55Q284.68-10.95 286.3-7.75 287.93-4.55 291.13-4.55L291.13-4.55Z" opacity="1" transform="matrix(1,0,0,1,0,0)" fill="#ffdb99" class="undefined-text-0" data-fill-palette-color="primary" id="text-0"></path></svg></g></svg></g></svg></g></svg></g><g transform="matrix(1,0,0,1,405.8012564046273,0)"><svg viewBox="0 0 60.18695823037851 60.18695823037851" height="60.18695823037851" width="60.18695823037851"><g data-palette-color="#ff5db2"><rect width="16.45110191630346" height="60.18695823037851" fill="#ff5db2" stroke="transparent" data-fill-palette-color="accent" x="0" fill-opacity="1"></rect><rect width="16.45110191630346" height="60.18695823037851" fill="#ff5db2" stroke="transparent" data-fill-palette-color="accent" x="20.06231941012617" fill-opacity="0.75"></rect><rect width="16.45110191630346" height="60.18695823037851" fill="#ff5db2" stroke="transparent" data-fill-palette-color="accent" x="40.12463882025234" fill-opacity="0.5"></rect></g></svg></g></svg></g></svg><rect width="395.52" height="51.085295661232855" fill="none" stroke="none" visibility="hidden"></rect></g></svg></g></svg>